# xmcd
#
# Track frame offsets: 
#        150
#        18647
#        39060
#        67835
#        80872
#        100130
#        117695
#        149632
#        166122
#        181940
#        200020
#        215187
#        237730
#        251177
#        268290
#        282290
#
# Disc length: 4070 seconds
#
# Revision: 0
# Processed by: cddbd v1.5.2PL0 Copyright (c) Steve Scherf et al.
# Submitted via: ExactAudioCopy v0.99pb3
#
DISCID=000fe410
DTITLE=Tomcat Blake - I've Been Wondering
DYEAR=1996
DGENRE=Blues
TTITLE0=Big Mamou
TTITLE1=If You Knew
TTITLE2=Heart As Cold As Ice
TTITLE3=Scratch 'n' Sniff
TTITLE4=The Numbers Blues
TTITLE5=Swooshy
TTITLE6=She Did You A Favor
TTITLE7=So Glad
TTITLE8=Done Done It
TTITLE9=Biddle Street Blues
TTITLE10=Strollin' With The Bone
TTITLE11=I've Been Wondering
TTITLE12=King Freddie Swing
TTITLE13=A Bird In Hand
TTITLE14=Caught In A Web Of Love
TTITLE15=Please Make Up Your Mind
EXTD=
EXTT0=
EXTT1=
EXTT2=
EXTT3=
EXTT4=
EXTT5=
EXTT6=
EXTT7=
EXTT8=
EXTT9=
EXTT10=
EXTT11=
EXTT12=
EXTT13=
EXTT14=
EXTT15=
PLAYORDER=
